<?xml version="1.0" encoding="utf-8"?>
<!-- Svg Vector Icons : http://www.onlinewebfonts.com/icon -->
<!DOCTYPE svg PUBLIC "-//W3C//DTD SVG 1.1//EN" "http://www.w3.org/Graphics/SVG/1.1/DTD/svg11.dtd">
<svg version="1.1" xmlns="http://www.w3.org/2000/svg" xmlns:xlink="http://www.w3.org/1999/xlink" x="0px" y="0px" viewBox="0 0 1000 1000" enable-background="new 0 0 1000 1000" xml:space="preserve" fill="#333333">
<metadata> Svg Vector Icons : http://www.onlinewebfonts.com/icon </metadata>
<g><g transform="translate(0.000000,511.000000) scale(0.100000,-0.100000)"><path d="M2183.4,3586.2c-795.6-73.8-1550.2-626.1-1883.8-1380.7c-191.4-432-243.3-1052.6-125.8-1501C425.4-247,1242.9-960.6,2180.7-1050.8c106.6-8.2,183.2-30.1,183.2-46.5c-2.7-62.9-109.4-265.2-221.5-418.3c-336.3-453.8-940.5-924.1-1755.3-1361.6C135.5-3013.9,75.4-3085,108.2-3210.8c8.2-35.5,41-90.2,73.8-123c51.9-52,76.5-54.7,265.2-41c407.4,32.8,1096.4,207.8,1569.4,399.2c1252.2,511.3,2108,1430,2518.1,2704.1c158.6,489.4,216,866.7,218.7,1427.2c2.7,566-27.3,716.3-229.7,1134.7C4097.3,3176.1,3186.8,3679.2,2183.4,3586.2z"/><path d="M7326.3,3589c-292.6-32.8-522.2-101.2-792.9-235.1C5385.1,2785.1,4912.1,1388,5480.8,239.7c194.1-393.7,544.1-771,915.9-989.8c287.1-169.5,746.4-308.9,1014.4-308.9c112.1,0,114.8-19.2,21.9-202.3C7189.6-1748,6410.4-2412.4,5592.9-2833.5c-150.4-76.6-292.6-166.8-317.1-199.6c-60.2-90.2-52-205.1,27.3-281.6c79.3-82,188.6-87.5,546.8-24.6c1252.2,216,2288.5,746.4,2955.6,1517.4c492.1,568.7,847.6,1306.9,995.2,2067c123,639.8,131.2,1148.3,27.3,1585.8C9562.8,2946.4,8471.9,3712,7326.3,3589z"/></g></g>
</svg>